<?xml version="1.0" encoding="utf-8"?>
<!-- Generator: Adobe Illustrator 18.1.1, SVG Export Plug-In . SVG Version: 6.00 Build 0)  -->
<svg version="1.1" id="Layer_1" xmlns="http://www.w3.org/2000/svg" xmlns:xlink="http://www.w3.org/1999/xlink" x="0px" y="0px"
	 viewBox="0 0 222.7 78.7" enable-background="new 0 0 222.7 78.7" xml:space="preserve">
<g>
	<path fill-rule="evenodd" clip-rule="evenodd" fill="#483B27" d="M76.3,38.6c0-20-16.2-36.2-36.2-36.2C20.2,2.5,4,18.7,4,38.6
		C4,58,19.2,73.8,38.3,74.7V56.1c0-3-6.2-4.6-6.2-9.4c0.8-9.8,1.5-19.6,2.3-29.4c0.3-0.2,0.7-0.4,1,0c0.2,8.9,0.3,17.8,0.5,26.7
		c0.3,0.6,0.7,0.6,1.1,0c0.2-8.9,0.4-17.8,0.7-26.7c0.4-0.4,0.7-0.4,1.2,0c0.2,8.9,0.6,17.8,0.8,26.6c0.4,0.4,0.8,0.4,1.1,0
		c0.2-8.9,0.5-17.7,0.7-26.6c0.3-0.4,0.7-0.4,1,0c0.3,8.9,0.5,17.7,0.8,26.6c0.4,0.6,0.8,0.6,1.2,0c0.2-8.9,0.4-17.7,0.6-26.6
		c0.4-0.4,0.7-0.4,1,0l2.1,29.3c0,4.8-6.2,6.4-6.2,9.4l0,18.6C61.1,73.8,76.3,58,76.3,38.6z"/>
</g>
<text transform="matrix(1 0 0 1 83.1486 36.4433)"><tspan x="0" y="0" font-family="'Lato-Light'" font-size="25.7638">Boutique</tspan><tspan x="0" y="23" font-family="'Lato-Light'" font-size="25.7638">Food tasters</tspan></text>
</svg>
